<svg width="26" height="30" viewBox="0 0 26 30" fill="none" xmlns="http://www.w3.org/2000/svg">
<path d="M4.69473 22.6912C4.69473 23.4746 5.3262 24.1141 6.10315 24.1141H7.71324V28.1452C7.71324 29.1663 8.52325 30 9.5184 30C10.5169 30 11.3236 29.1697 11.3236 28.1452V24.1108H14.1338V28.1418C14.1338 29.163 14.9438 29.9967 15.9389 29.9967C16.9374 29.9967 17.7441 29.1663 17.7441 28.1418V24.1108H19.3542C20.1311 24.1108 20.7626 23.4713 20.7626 22.6878V9.45627H4.69473V22.6912V22.6912ZM16.501 2.59943L17.9854 0.423191C18.0714 0.295965 18.0516 0.125213 17.9359 0.0415118C17.8201 -0.0388418 17.6548 0.00133524 17.5689 0.128562L16.0282 2.39185C15.0132 1.98674 13.8825 1.76242 12.6956 1.76242C11.5087 1.76242 10.378 1.98674 9.36301 2.39185L7.82235 0.13191C7.73639 0.00468326 7.57108 -0.0388416 7.45536 0.0448601C7.33965 0.125214 7.31981 0.292617 7.40577 0.426539L8.89023 2.60278C6.52964 3.71434 4.87657 5.82027 4.66497 8.2811H20.7329C20.5146 5.81692 18.8583 3.71099 16.501 2.59943V2.59943ZM9.3035 6.0312C9.1276 6.0312 8.95566 5.97838 8.8094 5.87942C8.66315 5.78045 8.54916 5.6398 8.48184 5.47523C8.41453 5.31066 8.39692 5.12957 8.43123 4.95487C8.46555 4.78016 8.55025 4.61969 8.67463 4.49373C8.79901 4.36777 8.95748 4.282 9.13 4.24725C9.30251 4.2125 9.48133 4.23033 9.64384 4.2985C9.80635 4.36666 9.94525 4.4821 10.043 4.63021C10.1407 4.77832 10.1929 4.95244 10.1929 5.13057C10.1922 5.36924 10.0983 5.59796 9.93169 5.76673C9.76504 5.9355 9.53918 6.03058 9.3035 6.0312V6.0312ZM16.1935 6.0312C16.0176 6.0312 15.8457 5.97838 15.6994 5.87942C15.5532 5.78045 15.4392 5.6398 15.3719 5.47523C15.3045 5.31066 15.2869 5.12957 15.3212 4.95487C15.3556 4.78016 15.4403 4.61969 15.5646 4.49373C15.689 4.36777 15.8475 4.282 16.02 4.24725C16.1925 4.2125 16.3713 4.23033 16.5339 4.2985C16.6964 4.36666 16.8353 4.4821 16.933 4.63021C17.0307 4.77832 17.0829 4.95244 17.0829 5.13057C17.0823 5.36924 16.9884 5.59796 16.8217 5.76673C16.6551 5.9355 16.4292 6.03058 16.1935 6.0312ZM23.5794 9.4027C22.581 9.4027 21.7743 10.233 21.7743 11.2575V18.5027C21.7743 19.5239 22.5843 20.3576 23.5794 20.3576C24.5779 20.3576 25.3846 19.5273 25.3846 18.5027V11.2542C25.3879 10.2297 24.5812 9.4027 23.5794 9.4027ZM1.80516 9.4027C0.8067 9.4027 0 10.233 0 11.2575V18.5027C0 19.5239 0.810006 20.3576 1.80516 20.3576C2.80361 20.3576 3.61031 19.5273 3.61031 18.5027V11.2542C3.61031 10.2297 2.80031 9.4027 1.80516 9.4027Z" fill="#67552A"/>
</svg>
