<svg width="30" height="30" viewBox="0 0 30 30" fill="none" xmlns="http://www.w3.org/2000/svg">
<path d="M26.7857 0H3.21429C1.44 0 0 1.44 0 3.21429V26.7857C0 28.56 1.44 30 3.21429 30H26.7857C28.56 30 30 28.56 30 26.7857V3.21429C30 1.44 28.56 0 26.7857 0ZM8.505 23.6046C8.3274 23.9118 8.03505 24.1359 7.69226 24.2275C7.34947 24.3191 6.98432 24.2708 6.67714 24.0932C6.36997 23.9156 6.14592 23.6233 6.0543 23.2805C5.96267 22.9377 6.01097 22.5725 6.18857 22.2654L7.14643 20.6111C8.22429 20.2832 9.10821 20.5371 9.79821 21.3739L8.505 23.6046ZM17.8061 19.9961H5.625C4.88786 19.9961 4.28571 19.3929 4.28571 18.6568C4.28571 17.9207 4.88893 17.3175 5.625 17.3175H9.04071L13.4196 9.73714L12.0471 7.36714C11.8705 7.05975 11.8227 6.69492 11.9143 6.35241C12.0058 6.0099 12.2293 5.71756 12.5357 5.53929C12.8431 5.36264 13.2079 5.31488 13.5504 5.40643C13.893 5.49798 14.1853 5.7214 14.3636 6.02786L14.9593 7.05857L15.555 6.02786C15.6429 5.87576 15.76 5.74247 15.8994 5.6356C16.0389 5.52873 16.198 5.45038 16.3677 5.40501C16.5375 5.35964 16.7145 5.34815 16.8887 5.37119C17.0628 5.39423 17.2308 5.45135 17.3829 5.53929C17.535 5.62722 17.6682 5.74426 17.7751 5.88371C17.882 6.02316 17.9603 6.1823 18.0057 6.35203C18.0511 6.52176 18.0626 6.69877 18.0395 6.87294C18.0165 7.04711 17.9594 7.21504 17.8714 7.36714L12.1264 17.3186H16.2846C17.6368 17.3186 18.3943 18.9054 17.805 19.9971L17.8061 19.9961ZM24.375 19.9961H22.4325L23.745 22.2664C24.1136 22.9093 23.8918 23.7268 23.2564 24.0943C22.6136 24.4629 21.7961 24.2411 21.4286 23.6057C19.2257 19.7957 17.5779 16.9296 16.4732 15.0279C15.3546 13.0854 16.1518 11.1439 16.9489 10.4882C17.8264 12.0086 19.1389 14.2854 20.8929 17.3186H24.375C24.7302 17.3186 25.0709 17.4597 25.322 17.7108C25.5732 17.962 25.7143 18.3027 25.7143 18.6579C25.7143 19.0131 25.5732 19.3537 25.322 19.6049C25.0709 19.856 24.7302 19.9971 24.375 19.9971V19.9961Z" fill="#67552A"/>
</svg>
