<svg width="94" height="80" viewBox="0 0 94 80" fill="none" xmlns="http://www.w3.org/2000/svg">
<path d="M12.1135 32.2589H9.3705C8.61024 32.2589 7.99414 32.875 7.99414 33.6353C7.99414 34.3955 8.61024 35.0116 9.3705 35.0116H12.1137C12.874 35.0116 13.4901 34.3955 13.4901 33.6353C13.4901 32.875 12.8738 32.2589 12.1135 32.2589Z" fill="#67552A"/>
<path d="M12.1135 25.6526H9.3705C8.61024 25.6526 7.99414 26.2687 7.99414 27.029C7.99414 27.7892 8.61024 28.4053 9.3705 28.4053H12.1137C12.874 28.4053 13.4901 27.7892 13.4901 27.029C13.4899 26.2685 12.8738 25.6526 12.1135 25.6526Z" fill="#67552A"/>
<path d="M12.1135 38.8652H9.3705C8.61024 38.8652 7.99414 39.4813 7.99414 40.2416C7.99414 41.0019 8.61024 41.618 9.3705 41.618H12.1137C12.874 41.618 13.4901 41.0019 13.4901 40.2416C13.4899 39.4815 12.8738 38.8652 12.1135 38.8652Z" fill="#67552A"/>
<path d="M12.1135 45.4716H9.3705C8.61024 45.4716 7.99414 46.0878 7.99414 46.8479C7.99414 47.6082 8.61024 48.2243 9.3705 48.2243H12.1137C12.874 48.2243 13.4901 47.6082 13.4901 46.8479C13.4899 46.0878 12.8738 45.4716 12.1135 45.4716Z" fill="#67552A"/>
<path d="M12.1135 52.078H9.3705C8.61024 52.078 7.99414 52.6943 7.99414 53.4544C7.99414 54.2146 8.61024 54.8307 9.3705 54.8307H12.1137C12.874 54.8307 13.4901 54.2146 13.4901 53.4544C13.4899 52.6941 12.8738 52.078 12.1135 52.078Z" fill="#67552A"/>
<path d="M12.1135 58.6843H9.3705C8.61024 58.6843 7.99414 59.3006 7.99414 60.0607C7.99414 60.821 8.61024 61.4371 9.3705 61.4371H12.1137C12.874 61.4371 13.4901 60.821 13.4901 60.0607C13.4899 59.3006 12.8738 58.6843 12.1135 58.6843Z" fill="#67552A"/>
<path d="M12.1135 65.2906H9.3705C8.61024 65.2906 7.99414 65.9069 7.99414 66.667C7.99414 67.4273 8.61024 68.0434 9.3705 68.0434H12.1137C12.874 68.0434 13.4901 67.4273 13.4901 66.667C13.4899 65.9069 12.8738 65.2906 12.1135 65.2906Z" fill="#67552A"/>
<path d="M37.4483 62.9125L35.0248 60.4892L37.4483 58.0659C37.9856 57.5278 37.9856 56.6565 37.4482 56.1191C36.9106 55.5819 36.0391 55.5819 35.5017 56.1191L32.1052 59.5156C31.5678 60.0534 31.5678 60.9246 32.1052 61.4622L35.5017 64.8588C35.7706 65.1275 36.123 65.2617 36.4751 65.2617C36.8273 65.2617 37.1796 65.1275 37.4485 64.8588C37.9857 64.3212 37.9857 63.4499 37.4483 62.9125Z" fill="#67552A"/>
<path d="M52.1944 59.5153L48.7977 56.1191C48.2599 55.5819 47.3887 55.5819 46.8513 56.1191C46.3139 56.6569 46.3139 57.5281 46.8513 58.0655L49.2748 60.4888L46.8513 62.9122C46.3139 63.4499 46.3139 64.3212 46.8513 64.8586C47.1202 65.1273 47.4725 65.2615 47.8247 65.2615C48.1769 65.2615 48.5292 65.1273 48.7981 64.8586L52.1946 61.4621C52.7318 60.9243 52.7318 60.053 52.1944 59.5153Z" fill="#67552A"/>
<path d="M44.3792 54.2583C43.6639 53.9986 42.875 54.3667 42.6151 55.0808L38.8002 65.5618C38.5401 66.2762 38.9086 67.0658 39.6227 67.3259C39.7782 67.3824 39.937 67.4092 40.0931 67.4092C40.6553 67.4092 41.1832 67.0619 41.3868 66.5031L45.2017 56.0221C45.4617 55.3082 45.0934 54.5182 44.3792 54.2583Z" fill="#67552A"/>
<path d="M10.7192 8.38439C10.7027 8.29837 10.6752 8.21033 10.6421 8.1276C10.6073 8.04507 10.5651 7.96418 10.5156 7.89081C10.4644 7.81378 10.4074 7.74408 10.345 7.68135C10.088 7.42457 9.73385 7.27783 9.3705 7.27783C9.0088 7.27783 8.65298 7.42457 8.39766 7.68135C8.33346 7.74389 8.2766 7.81359 8.22525 7.89081C8.17554 7.964 8.13354 8.04488 8.10034 8.1276C8.06549 8.21014 8.03798 8.29818 8.02147 8.38439C8.00313 8.47426 7.99414 8.5645 7.99414 8.65438C7.99414 9.01589 8.14087 9.37172 8.39766 9.62704C8.65298 9.88382 9.0088 10.0307 9.3705 10.0307C9.46019 10.0307 9.55007 10.0214 9.64031 10.0032C9.72817 9.98672 9.81456 9.95921 9.89709 9.92436C9.97963 9.89116 10.0605 9.84732 10.1359 9.7978C10.2109 9.74828 10.2808 9.69142 10.3452 9.62722C10.6003 9.37191 10.7471 9.01608 10.7471 8.65456C10.7467 8.5645 10.7373 8.47445 10.7192 8.38439Z" fill="#67552A"/>
<path d="M15.0091 7.68147C14.7521 7.42469 14.3979 7.27795 14.0346 7.27795C13.6729 7.27795 13.3189 7.42469 13.0617 7.68147C12.8049 7.93679 12.6582 8.29262 12.6582 8.65432C12.6582 9.01583 12.8049 9.37166 13.0617 9.62698C13.3187 9.88376 13.6729 10.0307 14.0346 10.0307C14.3977 10.0307 14.7519 9.88376 15.0091 9.62698C15.2642 9.37166 15.4128 9.01583 15.4128 8.65432C15.4128 8.29262 15.264 7.93679 15.0091 7.68147Z" fill="#67552A"/>
<path d="M20.0504 8.38436C20.0323 8.29834 20.0066 8.2103 19.9717 8.12758C19.9369 8.04504 19.8947 7.96415 19.8452 7.89078C19.7956 7.81375 19.739 7.74405 19.6746 7.68132C19.6104 7.61712 19.5409 7.56045 19.4653 7.50891C19.3901 7.4592 19.3112 7.4172 19.2285 7.38235C19.1441 7.34934 19.0578 7.32182 18.9697 7.30348C18.7934 7.26863 18.61 7.26863 18.4319 7.30348C18.3439 7.32182 18.2577 7.34934 18.175 7.38235C18.0906 7.4172 18.0117 7.45939 17.9363 7.50891C17.8611 7.56027 17.7914 7.61712 17.7269 7.68132C17.6645 7.74387 17.606 7.81356 17.5563 7.89078C17.5068 7.96397 17.4646 8.04485 17.4299 8.12758C17.3951 8.21011 17.3694 8.29815 17.3509 8.38436C17.3344 8.47423 17.3252 8.56447 17.3252 8.65435C17.3252 9.01586 17.4719 9.37169 17.7269 9.62701C17.7913 9.69121 17.8608 9.74807 17.9363 9.79759C18.0115 9.84729 18.0904 9.89113 18.175 9.92415C18.2575 9.95881 18.3437 9.98651 18.4319 10.003C18.5198 10.0214 18.6115 10.0305 18.7017 10.0305C18.7916 10.0305 18.8813 10.0212 18.9697 10.003C19.0576 9.98651 19.1441 9.959 19.2285 9.92415C19.3111 9.89095 19.3899 9.84711 19.4653 9.79759C19.5407 9.74807 19.6102 9.69121 19.6746 9.62701C19.9316 9.37169 20.0783 9.01586 20.0783 8.65435C20.0779 8.56447 20.0688 8.47442 20.0504 8.38436Z" fill="#67552A"/>
<path d="M57.2496 7.27783H24.432C23.6718 7.27783 23.0557 7.89393 23.0557 8.65419C23.0557 9.41446 23.6718 10.0306 24.432 10.0306H57.2496C58.0099 10.0306 58.626 9.41446 58.626 8.65419C58.6258 7.89411 58.0097 7.27783 57.2496 7.27783Z" fill="#67552A"/>
<path d="M67.7169 7.27783H62.0893C61.329 7.27783 60.7129 7.89393 60.7129 8.65419C60.7129 9.41446 61.329 10.0306 62.0893 10.0306H67.7169C68.4771 10.0306 69.0932 9.41446 69.0932 8.65419C69.0932 7.89411 68.4771 7.27783 67.7169 7.27783Z" fill="#67552A"/>
<path d="M78.9682 35.7444H60.9115C60.1513 35.7444 59.5352 36.3605 59.5352 37.1207C59.5352 37.881 60.1513 38.4971 60.9115 38.4971H78.9682C79.7285 38.4971 80.3446 37.881 80.3446 37.1207C80.3444 36.3603 79.7285 35.7444 78.9682 35.7444Z" fill="#67552A"/>
<path d="M71.2704 29.1378H66.0404C65.2802 29.1378 64.6641 29.7539 64.6641 30.5142C64.6641 31.2744 65.2802 31.8905 66.0404 31.8905H71.2704C72.0307 31.8905 72.6467 31.2744 72.6467 30.5142C72.6467 29.7539 72.0307 29.1378 71.2704 29.1378Z" fill="#67552A"/>
<path d="M85.0585 29.1378H76.5463C75.786 29.1378 75.1699 29.7539 75.1699 30.5142C75.1699 31.2744 75.786 31.8905 76.5463 31.8905H85.0585C85.8188 31.8905 86.4349 31.2744 86.4349 30.5142C86.4349 29.7541 85.8186 29.1378 85.0585 29.1378Z" fill="#67552A"/>
<path d="M60.1224 29.1378H42.7348C41.9745 29.1378 41.3584 29.7539 41.3584 30.5142C41.3584 31.2744 41.9745 31.8905 42.7348 31.8905H60.1224C60.8826 31.8905 61.4987 31.2744 61.4987 30.5142C61.4985 29.7539 60.8826 29.1378 60.1224 29.1378Z" fill="#67552A"/>
<path d="M55.8085 35.7444H50.5785C49.8182 35.7444 49.2021 36.3605 49.2021 37.1207C49.2021 37.881 49.8182 38.4971 50.5785 38.4971H55.8085C56.5687 38.4971 57.1848 37.881 57.1848 37.1207C57.1847 36.3603 56.5687 35.7444 55.8085 35.7444Z" fill="#67552A"/>
<path d="M45.227 35.7444H42.4838C41.7235 35.7444 41.1074 36.3605 41.1074 37.1207C41.1074 37.881 41.7235 38.4971 42.4838 38.4971H45.227C45.9872 38.4971 46.6033 37.881 46.6033 37.1207C46.6033 36.3603 45.9874 35.7444 45.227 35.7444Z" fill="#67552A"/>
<path d="M35.6381 35.7444H32.8949C32.1347 35.7444 31.5186 36.3605 31.5186 37.1207C31.5186 37.881 32.1347 38.4971 32.8949 38.4971H35.6381C36.3984 38.4971 37.0145 37.881 37.0145 37.1207C37.0145 36.3605 36.3984 35.7444 35.6381 35.7444Z" fill="#67552A"/>
<path d="M35.6381 29.1378H32.8949C32.1347 29.1378 31.5186 29.7539 31.5186 30.5142C31.5186 31.2744 32.1347 31.8905 32.8949 31.8905H35.6381C36.3984 31.8905 37.0145 31.2744 37.0145 30.5142C37.0145 29.7541 36.3984 29.1378 35.6381 29.1378Z" fill="#67552A"/>
<path d="M86.408 36.8523C86.3915 36.7643 86.364 36.6783 86.329 36.5937C86.2961 36.5112 86.2521 36.4323 86.2026 36.3569C86.1529 36.2817 86.0962 36.21 86.032 36.1475C85.9695 36.0833 85.8981 36.0264 85.8225 35.9752C85.7473 35.9255 85.6685 35.8835 85.5858 35.8487C85.5014 35.8157 85.4152 35.7882 85.327 35.7717C85.1509 35.735 84.9673 35.735 84.7894 35.7717C84.7015 35.7882 84.6149 35.8157 84.5324 35.8487C84.45 35.8835 84.369 35.9257 84.2938 35.9752C84.2186 36.0264 84.1489 36.0835 84.0845 36.1475C84.0221 36.2098 83.9653 36.2814 83.9139 36.3569C83.8642 36.4321 83.8222 36.511 83.7873 36.5937C83.7525 36.6781 83.7268 36.7643 83.7085 36.8523C83.692 36.9404 83.6826 37.0304 83.6826 37.1205C83.6826 37.2102 83.692 37.3004 83.7085 37.3903C83.7268 37.4784 83.7523 37.5647 83.7873 37.6471C83.8222 37.7296 83.8644 37.8105 83.9139 37.8839C83.9651 37.9609 84.0221 38.0308 84.0845 38.0933C84.1487 38.1575 84.2182 38.2144 84.2938 38.2658C84.369 38.3155 84.4499 38.3575 84.5324 38.3923C84.6149 38.4253 84.7013 38.4528 84.7894 38.4694C84.8792 38.4877 84.9691 38.4969 85.0592 38.4969C85.1492 38.4969 85.2391 38.4875 85.3271 38.4694C85.4152 38.4528 85.5016 38.4253 85.5859 38.3923C85.6685 38.3575 85.7473 38.3153 85.8227 38.2658C85.8979 38.2146 85.9695 38.1575 86.0322 38.0933C86.0964 38.031 86.1531 37.9611 86.2028 37.8839C86.2523 37.8107 86.2963 37.7298 86.3291 37.6471C86.364 37.5647 86.3917 37.4784 86.4082 37.3903C86.4265 37.3004 86.4355 37.2106 86.4355 37.1205C86.4353 37.0304 86.4262 36.9406 86.408 36.8523Z" fill="#67552A"/>
<path d="M90.3315 49.7818H75.7946V44.8274H90.3315C92.3045 44.8274 93.9099 43.2221 93.9099 41.2489V26.3857C93.9099 24.4126 92.3047 22.8072 90.3315 22.8072H86.4913C85.7312 22.8072 85.1149 23.4233 85.1149 24.1836C85.1149 24.9438 85.7312 25.5599 86.4913 25.5599H90.3315C90.779 25.5599 91.1572 25.9381 91.1572 26.3857V41.2489C91.1572 41.6964 90.779 42.0746 90.3315 42.0746C84.8616 42.0746 28.0962 42.0746 26.634 42.0746C26.1862 42.0746 25.8082 41.6964 25.8082 41.2489V26.3857C25.8082 25.9381 26.1862 25.5599 26.634 25.5599C28.9188 25.5599 77.694 25.5599 80.0685 25.5599C80.8288 25.5599 81.4449 24.9438 81.4449 24.1836C81.4449 23.4233 80.8288 22.8072 80.0685 22.8072H75.7946C75.7946 20.2461 75.7946 9.33483 75.7946 6.76148C75.7946 3.03389 72.7621 0.00127197 69.0343 0.00127197C2.80383 0.0109931 6.8115 -0.018537 6.26693 0.0227319C3.36124 0.240998 0.979014 2.29014 0.249563 5.00673C-0.0936105 6.28313 0.0169901 6.38401 0.0169901 23.8175C0.0169901 24.5777 0.633089 25.1938 1.39335 25.1938C2.15362 25.1938 2.76972 24.5777 2.76972 23.8175V17.3067H73.0418V22.8074H26.634C24.6609 22.8074 23.0555 24.4126 23.0555 26.3858V41.2491C23.0555 43.2223 24.6608 44.8275 26.634 44.8275H73.042V49.782H26.634C24.6609 49.782 23.0555 51.3873 23.0555 53.3605V68.2239C23.0555 70.1971 24.6608 71.8023 26.634 71.8023H73.042V73.2398C73.042 75.4494 71.2442 77.2473 69.0345 77.2473H21.9124C21.1522 77.2473 20.5361 77.8636 20.5361 78.6236C20.5361 79.3839 21.1522 80 21.9124 80H69.0343C72.7619 80 75.7946 76.9676 75.7946 73.2398V71.8023H90.3315C92.3045 71.8023 93.9099 70.1971 93.9099 68.2239V53.3605C93.9099 51.3873 92.3045 49.7818 90.3315 49.7818ZM2.7699 14.554C2.77595 6.49167 2.34896 5.38677 4.07436 3.80608C4.78969 3.15311 5.74089 2.75418 6.77738 2.75418H69.0345C71.2442 2.75418 73.042 4.55204 73.042 6.76167V14.554H2.7699ZM91.1572 68.2237C91.1572 68.6714 90.779 69.0494 90.3315 69.0494C84.8616 69.0494 28.0962 69.0494 26.634 69.0494C26.1862 69.0494 25.8082 68.6714 25.8082 68.2237V53.3603C25.8082 52.9128 26.1862 52.5345 26.634 52.5345C28.1703 52.5345 85.0944 52.5345 90.3315 52.5345C90.779 52.5345 91.1572 52.9128 91.1572 53.3603V68.2237Z" fill="#67552A"/>
<path d="M15.4899 77.2471H6.77779C4.56816 77.2471 2.7703 75.4492 2.7703 73.2396V30.2401C2.7703 29.4799 2.15421 28.8638 1.39394 28.8638C0.633677 28.8638 0.0175781 29.4799 0.0175781 30.2401V73.2396C0.0175781 76.9672 3.05002 79.9998 6.77779 79.9998H15.4901C16.2504 79.9998 16.8665 79.3837 16.8665 78.6234C16.8663 77.8633 16.2504 77.2471 15.4899 77.2471Z" fill="#67552A"/>
</svg>
