<svg width="80" height="80" viewBox="0 0 80 80" fill="none" xmlns="http://www.w3.org/2000/svg">
<path d="M78.8281 67.7521H76.7547V25.6511C76.7547 22.5675 74.2453 20.0589 71.1609 20.0589H68.4083C68.7092 19.4293 68.8752 18.7308 68.8752 18.005C68.8752 16.2379 67.9053 14.626 66.3439 13.7983L51.0205 5.68114C50.4486 5.37801 49.7392 5.59614 49.4364 6.16817C49.1334 6.74004 49.3516 7.44926 49.9234 7.75223L65.2466 15.8693C66.0511 16.2957 66.5314 17.0941 66.5314 18.005C66.5314 18.916 66.0511 19.7143 65.2469 20.1405L50.3512 28.0315L40.8813 17.2324C40.4545 16.7457 39.7141 16.6972 39.2275 17.124C38.7409 17.5507 38.6923 18.2911 39.1191 18.7777L48.2228 29.1591L42.5866 32.1449C40.967 33.0016 39.0334 33.0016 37.4144 32.1452L14.7534 20.1408C13.9491 19.7144 13.4686 18.916 13.4686 18.0052C13.4686 17.0944 13.9489 16.296 14.7531 15.8696L37.4136 3.8652C39.0331 3.00833 40.9667 3.00833 42.5856 3.86489L45.8294 5.58364C46.4013 5.88676 47.1106 5.66879 47.4136 5.09692C47.7166 4.52504 47.4986 3.81567 46.9269 3.5127L43.6825 1.79364C41.3766 0.573481 38.6231 0.573481 36.317 1.79379L13.6558 13.7986C12.0947 14.6261 11.125 16.238 11.125 18.0052C11.125 18.731 11.2909 19.4293 11.5919 20.0591H8.83906C5.75469 20.0591 3.24531 22.5677 3.24531 25.6513V67.7522H1.17188C0.524687 67.7522 0 68.2769 0 68.9241V71.5215C0 75.7122 3.40937 79.1218 7.60016 79.1218H72.3997C76.5905 79.1218 80 75.7124 80 71.5215V68.9241C80 68.2768 79.4753 67.7521 78.8281 67.7521V67.7521ZM50.0806 47.4215L51.6086 50.068C51.9244 50.615 51.7138 51.098 51.6086 51.2802C51.5034 51.4624 51.1905 51.8863 50.5587 51.8863H49.6023C48.9706 51.8863 48.6578 51.4624 48.5525 51.2802C48.4472 51.0979 48.2367 50.615 48.5525 50.068L50.0806 47.4215ZM51.2525 30.2064L56.1016 27.6377V32.2913C56.1016 35.6335 54.2128 38.6297 51.2525 40.0525V30.2064ZM39.9998 35.1316C41.2647 35.1316 42.5298 34.8265 43.683 34.2165L48.9087 31.4482V40.9593C42.5059 43.0802 35.422 42.8421 29.1725 40.2446C25.9686 38.913 23.8984 35.7911 23.8984 32.2914V27.6375L36.3177 34.2166C37.4705 34.8268 38.735 35.1316 39.9998 35.1316V35.1316ZM5.58906 25.6511C5.58906 23.8599 7.04703 22.4027 8.83906 22.4027H14.0167L19.9156 25.5277H9.88594C9.23875 25.5277 8.71406 26.0524 8.71406 26.6996V63.4558C8.71406 64.103 9.23875 64.6277 9.88594 64.6277H16.0719C16.7191 64.6277 17.2438 64.103 17.2438 63.4558C17.2438 62.8086 16.7191 62.284 16.0719 62.284H11.0578V27.8714H21.5547V32.2913C21.5547 36.7411 24.1917 40.7124 28.2731 42.4088C31.9994 43.9575 35.9997 44.7319 40.0002 44.7319C43.0086 44.7319 46.0169 44.2936 48.9089 43.4177V44.7636L46.523 48.8961C45.8802 50.0094 45.8802 51.3388 46.523 52.4521C47.1658 53.5654 48.3169 54.23 49.6025 54.23H50.5589C51.8445 54.23 52.9956 53.5654 53.6384 52.4521C54.2813 51.3388 54.2813 50.0094 53.6384 48.8961L51.2525 44.7636V42.5989C51.4109 42.5363 51.5695 42.4743 51.727 42.4088C55.8083 40.7124 58.4453 36.7411 58.4453 32.2913V27.8714H68.9422V62.284H20.7594C20.1122 62.284 19.5875 62.8086 19.5875 63.4558C19.5875 64.103 20.1122 64.6277 20.7594 64.6277H70.1141C70.7613 64.6277 71.2859 64.103 71.2859 63.4558V26.6996C71.2859 26.0524 70.7613 25.5277 70.1141 25.5277H60.0842L65.9831 22.4027H71.1608C72.9528 22.4027 74.4108 23.8599 74.4108 25.6511V67.7521H5.58906V25.6511ZM47.2469 70.0965C46.8139 71.3566 45.6166 72.2649 44.2114 72.2649H35.7888C34.3834 72.2649 33.1862 71.3566 32.7531 70.0965H47.2469ZM77.6562 71.5213C77.6562 74.4197 75.2981 76.7779 72.3997 76.7779H7.60016C4.70172 76.7779 2.34375 74.4197 2.34375 71.5213V70.0958H4.40516C4.40922 70.0958 4.41313 70.0965 4.41719 70.0965H30.3355C30.8239 72.6624 33.0827 74.6086 35.7888 74.6086H44.2114C46.9173 74.6086 49.1761 72.6622 49.6645 70.0965H75.5828C75.5869 70.0965 75.5908 70.0958 75.5948 70.0958H77.6562V71.5213Z" fill="#5E4E29"/>
<path d="M40.3547 57.9871C40.3547 57.3399 39.83 56.8152 39.1828 56.8152H15.7227C15.0755 56.8152 14.5508 57.3399 14.5508 57.9871C14.5508 58.6342 15.0755 59.1589 15.7227 59.1589H39.183C39.83 59.1589 40.3547 58.6342 40.3547 57.9871Z" fill="#5E4E29"/>
<path d="M15.7227 54.2301H31.4086C32.0558 54.2301 32.5805 53.7054 32.5805 53.0582C32.5805 52.411 32.0558 51.8864 31.4086 51.8864H15.7227C15.0755 51.8864 14.5508 52.411 14.5508 53.0582C14.5508 53.7054 15.0753 54.2301 15.7227 54.2301Z" fill="#5E4E29"/>
</svg>
