<svg width="80" height="80" viewBox="0 0 80 80" fill="none" xmlns="http://www.w3.org/2000/svg">
<path d="M72.1794 62.2042C73.7597 60.0313 74.6161 57.4163 74.6274 54.7296C74.6444 54.3763 74.5204 54.0307 74.2826 53.7689C74.0448 53.5071 73.7127 53.3505 73.3594 53.3336C72.6267 53.3062 72.0065 53.8696 71.9635 54.6016C71.9735 56.7309 71.3176 58.8101 70.0875 60.5482C67.4862 63.8335 62.5502 64.0001 61.5862 64.0001C60.8499 64.0001 60.2529 64.5971 60.2529 65.3334C60.2529 66.0698 60.8499 66.6668 61.5862 66.6668C62.7649 66.6668 68.8142 66.4521 72.1794 62.2042V62.2042Z" fill="#67552A"/>
<path d="M45.3326 45.3338C45.3326 44.5974 44.7357 44.0005 43.9993 44.0005C43.263 44.0005 42.666 44.5974 42.666 45.3338C42.666 48.2793 45.0538 50.6671 47.9993 50.6671V52.0004C47.9993 52.7367 48.5962 53.3337 49.3326 53.3337C50.069 53.3337 50.6659 52.7367 50.6659 52.0004V50.6671C53.6114 50.6671 55.9992 48.2793 55.9992 45.3338C55.9992 42.3883 53.6114 40.0005 50.6659 40.0005V34.6673C52.1387 34.6673 53.3325 35.8611 53.3325 37.3339C53.3325 38.0703 53.9295 38.6672 54.6659 38.6672C55.4022 38.6672 55.9992 38.0703 55.9992 37.3339C55.9992 34.3884 53.6114 32.0006 50.6659 32.0006V30.6673C50.6659 29.9309 50.069 29.334 49.3326 29.334C48.5962 29.334 47.9993 29.9309 47.9993 30.6673V32.0006C45.0538 32.0006 42.666 34.3884 42.666 37.3339C42.666 40.2794 45.0538 42.6672 47.9993 42.6672V48.0004C46.5265 48.0004 45.3326 46.8065 45.3326 45.3338ZM45.3326 37.3339C45.3326 35.8611 46.5265 34.6673 47.9993 34.6673V40.0005C46.5265 40.0005 45.3326 38.8066 45.3326 37.3339ZM50.6659 42.6672C52.1387 42.6672 53.3325 43.861 53.3325 45.3338C53.3325 46.8065 52.1387 48.0004 50.6659 48.0004V42.6672Z" fill="#67552A"/>
<path d="M78.8844 45.0284C75.5991 31.0673 68.2951 22.978 63.0205 18.7528C69.6351 19.2514 71.7644 22.0034 71.8271 22.0861C72.2448 22.6824 73.0636 22.8333 73.6666 22.4252C74.2695 22.0171 74.4335 21.2008 74.0351 20.5914C73.9391 20.4474 72.0871 17.8021 66.7018 16.5915C68.0789 15.4595 68.8935 13.783 68.9325 12.0008C68.7542 9.04614 66.6973 6.54061 63.8339 5.79026C63.9513 4.82714 64.0109 3.85787 64.0125 2.88762C64.0111 1.99377 63.5619 1.16008 62.8162 0.667235C62.0705 0.174387 61.1275 0.0879367 60.3046 0.436989C59.6314 0.741752 59.0062 1.14284 58.4486 1.62764C57.7943 2.30006 56.8935 2.67578 55.9553 2.66763C55.0186 2.67422 54.1196 2.29866 53.466 1.62764C51.1162 -0.542547 47.4932 -0.542547 45.1434 1.62764C44.489 2.30152 43.5868 2.67745 42.6475 2.66763C41.7109 2.67541 40.8119 2.29963 40.1595 1.62764C39.6033 1.14388 38.98 0.743276 38.3089 0.438322C37.4865 0.0916095 36.5453 0.17924 35.8011 0.671796C35.0569 1.16435 34.6084 1.99653 34.6062 2.88896C34.6062 6.20625 35.2622 12.1235 39.4155 16.0968C37.2328 17.424 35.1942 18.9751 33.3329 20.7247V10.6675C33.3329 7.62757 29.033 5.33426 23.333 5.33426C17.6331 5.33426 13.3332 7.62757 13.3332 10.6675V24.1007C8.65723 24.5674 5.33327 26.6673 5.33327 29.334V63.2469C2.11197 64.1122 0 65.8668 0 68.0001V74.6667C0 77.7067 4.29995 80 9.99988 80C15.0971 80 19.0664 78.164 19.8491 75.6001C22.1506 76.8186 24.7301 77.4161 27.333 77.3334C33.0329 77.3334 37.3329 75.0401 37.3329 72.0001V54.667C37.3329 51.627 33.0329 49.3337 27.333 49.3337C26.6651 49.3333 25.9976 49.3666 25.333 49.4337V29.334C25.333 26.414 21.3637 24.19 15.9998 24.018V14.3595C18.2681 15.5124 20.7897 16.0768 23.333 16.0008C25.8764 16.0768 28.398 15.5124 30.6663 14.3595V23.4527C29.7876 24.4354 28.905 25.506 28.0343 26.6927C27.6356 27.2864 27.7763 28.0889 28.3532 28.5115C28.9301 28.9342 29.7377 28.8264 30.1836 28.2673C31.04 27.108 31.9577 25.9953 32.9329 24.934C32.9436 24.922 32.9529 24.91 32.9636 24.8993C35.5088 22.0707 38.4977 19.6754 41.8128 17.8074C42.4664 18.1227 43.1579 18.3526 43.8701 18.4914L40.4328 21.6994C39.8945 22.2023 39.8659 23.0464 40.3688 23.5847C40.8718 24.123 41.7159 24.1516 42.2541 23.6487L47.5874 18.6741H48.0127V22.674C48.0127 23.4104 48.6097 24.0074 49.346 24.0074C50.0824 24.0074 50.6794 23.4104 50.6794 22.674V18.6674H51.1047L56.438 23.642C56.7862 23.9674 57.2815 24.0822 57.7374 23.9434C58.1932 23.8045 58.5404 23.4329 58.648 22.9687C58.7557 22.5045 58.6075 22.0181 58.2593 21.6927L54.7993 18.4714C55.5073 18.3313 56.1943 18.1005 56.8433 17.7848C60.3672 19.6914 71.9511 27.2247 76.2897 45.6391C78.1764 53.655 77.4964 59.7869 74.2697 63.8602C70.1418 69.0668 62.9792 69.3335 61.5859 69.3335H42.6661C41.9298 69.3335 41.3328 69.9304 41.3328 70.6668C41.3328 71.4032 41.9298 72.0001 42.6661 72.0001H61.5859C63.8525 72.0001 71.5924 71.5321 76.359 65.5162C80.1163 60.7709 80.967 53.8777 78.8844 45.0284V45.0284ZM9.99988 65.3335C14.4092 65.3335 17.3331 66.9335 17.3331 68.0001C17.3331 69.0668 14.4092 70.6668 9.99988 70.6668C5.5906 70.6668 2.66663 69.0668 2.66663 68.0001C2.66663 66.9335 5.5906 65.3335 9.99988 65.3335ZM9.99988 77.3334C5.5906 77.3334 2.66663 75.7334 2.66663 74.6667V71.6921C4.93491 72.845 7.45655 73.4094 9.99988 73.3334C12.5432 73.4094 15.0648 72.845 17.3331 71.6921V74.6667C17.3331 75.7334 14.4092 77.3334 9.99988 77.3334ZM27.333 74.6667C22.9237 74.6667 19.9998 73.0668 19.9998 72.0001V58.3589C22.268 59.5118 24.7897 60.0762 27.333 60.0002C29.8763 60.0762 32.398 59.5118 34.6662 58.3589V72.0001C34.6662 73.0668 31.7423 74.6667 27.333 74.6667ZM34.6662 54.667C34.6662 55.7336 31.7423 57.3336 27.333 57.3336C22.9237 57.3336 19.9998 55.7336 19.9998 54.667C19.9998 53.6003 22.9237 52.0003 27.333 52.0003C31.7423 52.0003 34.6662 53.6003 34.6662 54.667ZM17.3331 54.667V64.3082C15.0648 63.1553 12.5432 62.5909 9.99988 62.6669C9.33196 62.6664 8.66444 62.6998 7.9999 62.7669V33.0259C10.2682 34.1788 12.7898 34.7432 15.3331 34.6672C17.8765 34.7432 20.3981 34.1788 22.6664 33.0259V49.9137C19.4451 50.779 17.3331 52.5337 17.3331 54.667ZM22.6664 29.334C22.6664 30.4006 19.7424 32.0006 15.3331 32.0006C10.9239 32.0006 7.9999 30.4006 7.9999 29.334C7.9999 28.2673 10.9239 26.6673 15.3331 26.6673C19.7424 26.6673 22.6664 28.2673 22.6664 29.334ZM23.333 13.3342C18.9238 13.3342 15.9998 11.7342 15.9998 10.6675C15.9998 9.60087 18.9238 8.00089 23.333 8.00089C27.7423 8.00089 30.6663 9.60087 30.6663 10.6675C30.6663 11.7342 27.7423 13.3342 23.333 13.3342ZM66.2658 12.0008C66.2658 14.1862 63.8992 15.9795 60.9326 16.0008C60.4364 15.9977 59.9419 15.9409 59.4579 15.8315C61.3931 13.7669 62.7381 11.2204 63.3525 8.45822C64.9575 8.93111 66.1118 10.3348 66.2658 12.0008ZM38.4902 3.70761C39.6162 4.76272 41.1044 5.34503 42.6475 5.33426C44.1915 5.34585 45.6808 4.76347 46.8074 3.70761C47.4665 3.04221 48.3642 2.66785 49.3007 2.66785C50.2373 2.66785 51.135 3.04221 51.794 3.70761C52.9206 4.76426 54.4107 5.34674 55.9553 5.33426C57.4998 5.34619 58.9897 4.76379 60.1166 3.70761C60.4861 3.38105 60.8972 3.10488 61.3392 2.88629C61.3392 5.36226 60.8792 11.4835 56.5833 14.8395C55.6168 15.5653 54.4452 15.9663 53.2367 15.9848C54.3909 14.0023 55.3045 11.8892 55.958 9.69021C56.0856 9.23101 55.9586 8.73858 55.6248 8.39842C55.2909 8.05827 54.801 7.92205 54.3395 8.0411C53.8779 8.16014 53.515 8.51635 53.3873 8.97555C52.6489 11.4819 51.5136 13.8537 50.0247 16.0008H48.6541C47.1681 13.8518 46.0327 11.4805 45.2901 8.97555C45.0924 8.26606 44.3569 7.85118 43.6475 8.04889C42.938 8.24661 42.5231 8.98205 42.7208 9.69154C43.3749 11.8924 44.2894 14.0073 45.4448 15.9915C44.212 15.9851 43.0141 15.5816 42.0288 14.8408C37.7329 11.4862 37.2729 5.36493 37.2729 2.89696C37.7147 3.10865 38.1245 3.38155 38.4902 3.70761V3.70761Z" fill="#67552A"/>
<path d="M72.1794 62.2042C73.7597 60.0313 74.6161 57.4163 74.6274 54.7296C74.6444 54.3763 74.5204 54.0308 74.2826 53.769C74.0448 53.5071 73.7127 53.3505 73.3594 53.3336C72.6272 53.3077 72.0078 53.8703 71.9635 54.6016C71.9735 56.7309 71.3176 58.8101 70.0875 60.5482C67.4862 63.8335 62.5502 64.0002 61.5862 64.0002C60.8499 64.0002 60.2529 64.5971 60.2529 65.3335C60.2529 66.0698 60.8499 66.6668 61.5862 66.6668C62.7649 66.6668 68.8142 66.4521 72.1794 62.2042V62.2042Z" fill="#67552A"/>
</svg>
