<svg width="83" height="80" viewBox="0 0 83 80" fill="none" xmlns="http://www.w3.org/2000/svg">
<path d="M65.7154 42.8647C60.0344 42.8647 54.2848 44.828 54.2848 48.5801V56.1071C52.083 54.9098 48.8867 54.2954 45.7119 54.2954C40.0308 54.2954 34.2812 56.2586 34.2812 60.0107V74.2989C34.2812 81.886 57.1425 81.9146 57.1425 74.2989V73.8917C63.3793 77.3223 77.146 75.8578 77.146 70.0124V48.5801C77.146 44.828 71.3964 42.8647 65.7154 42.8647ZM74.2884 62.8683C74.2884 63.8756 71.0335 65.726 65.7154 65.726C61.7676 65.726 59.813 64.7415 59.0571 64.5215C57.734 63.9257 57.1425 63.2612 57.1425 62.8683C57.1425 62.7126 57.1425 59.3906 57.1425 59.602C61.7204 62.121 69.969 61.9753 74.2884 59.6277V62.8683ZM37.1389 63.9142C41.5797 66.3261 49.8426 66.3275 54.2848 63.9142V67.1548C54.2848 68.1621 51.03 70.0124 45.7119 70.0124C40.3938 70.0124 37.1389 68.1621 37.1389 67.1548V63.9142ZM74.2884 55.7242C74.2884 57.7374 65.1653 60.0164 59.1828 57.4316C57.7726 56.8244 57.1425 56.1357 57.1425 55.7242V52.4836C61.5833 54.8955 69.8462 54.8969 74.2884 52.4836V55.7242ZM65.7154 45.7224C71.0335 45.7224 74.2884 47.5727 74.2884 48.5801C74.2884 49.5874 71.0335 51.4377 65.7154 51.4377C60.3973 51.4377 57.1425 49.5874 57.1425 48.5801C57.1425 47.5727 60.3973 45.7224 65.7154 45.7224ZM45.7119 57.153C51.03 57.153 54.2848 59.0033 54.2848 60.0107C54.2848 61.018 51.03 62.8683 45.7119 62.8683C40.3938 62.8683 37.1389 61.018 37.1389 60.0107C37.1389 59.0033 40.3938 57.153 45.7119 57.153ZM45.7119 77.1566C40.3938 77.1566 37.1389 75.3063 37.1389 74.2989V71.0583C41.5797 73.4702 49.8426 73.4716 54.2848 71.0583V74.2989C54.2848 75.3063 51.03 77.1566 45.7119 77.1566ZM59.2043 71.7299C57.7883 71.1226 57.1425 70.4139 57.1425 70.0124V66.7419C61.7004 69.258 69.9533 69.128 74.2884 66.7719V70.0124C74.2884 72.0099 65.2339 74.3118 59.2043 71.7299Z" fill="#67552A"/>
<path d="M67.144 24.2901C70.296 24.2901 72.8593 21.7268 72.8593 18.5748C72.8593 15.4228 70.296 12.8595 67.144 12.8595C63.992 12.8595 61.4287 15.4228 61.4287 18.5748C61.4287 21.7268 63.992 24.2901 67.144 24.2901ZM67.144 15.7171C68.7186 15.7171 70.0017 16.9988 70.0017 18.5748C70.0017 20.1508 68.7186 21.4325 67.144 21.4325C65.568 21.4325 64.2864 20.1508 64.2864 18.5748C64.2864 16.9988 65.568 15.7171 67.144 15.7171Z" fill="#67552A"/>
<path d="M77.145 28.5765C73.993 28.5765 71.4297 31.1399 71.4297 34.2918C71.4297 37.4438 73.993 40.0071 77.145 40.0071C80.297 40.0071 82.8603 37.4438 82.8603 34.2918C82.8603 31.1399 80.297 28.5765 77.145 28.5765ZM77.145 37.1495C75.569 37.1495 74.2873 35.8678 74.2873 34.2918C74.2873 32.7158 75.569 31.4342 77.145 31.4342C78.7196 31.4342 80.0026 32.7158 80.0026 34.2918C80.0026 35.8678 78.7196 37.1495 77.145 37.1495Z" fill="#67552A"/>
<path d="M63.8673 36.7309L81.0133 19.5849C82.3506 18.2476 80.3288 16.2272 78.9929 17.5646L61.847 34.7105C60.4925 36.065 62.55 38.0482 63.8673 36.7309Z" fill="#67552A"/>
<path d="M29.9957 68.5837H18.5637C14.6244 68.5837 11.4195 65.3788 11.4195 61.4395V10.0018C11.4195 7.20557 10.2665 4.67369 8.41043 2.85765H48.569C52.5083 2.85765 55.7132 6.06251 55.7132 10.0018V39.2084C55.7132 41.0973 58.5708 41.1002 58.5708 39.2084V10.0018C58.5708 4.48652 54.0829 0 48.569 0H1.41775C-0.474013 0 -0.471155 2.85765 1.41775 2.85765C5.35703 2.85765 8.56189 6.06251 8.56189 10.0018V61.4395C8.56189 66.9548 13.0498 71.4413 18.5637 71.4413H29.9957C31.8875 71.4413 31.8846 68.5837 29.9957 68.5837V68.5837Z" fill="#67552A"/>
<path d="M18.5633 10.0018H41.4245C43.3163 10.0018 43.3134 7.14417 41.4245 7.14417H18.5633C16.6715 7.14417 16.6744 10.0018 18.5633 10.0018Z" fill="#67552A"/>
<path d="M48.569 24.29H38.5672C36.6754 24.29 36.6783 27.1477 38.5672 27.1477H48.569C50.4607 27.1477 50.4579 24.29 48.569 24.29Z" fill="#67552A"/>
<path d="M18.5633 27.1477H32.8515C34.7433 27.1477 34.7404 24.29 32.8515 24.29H18.5633C16.6715 24.29 16.6744 27.1477 18.5633 27.1477Z" fill="#67552A"/>
<path d="M28.565 45.7224H18.5633C16.6715 45.7224 16.6744 48.5801 18.5633 48.5801H28.565C30.4568 48.5801 30.454 45.7224 28.565 45.7224Z" fill="#67552A"/>
<path d="M41.4252 48.5801C43.3169 48.5801 43.3141 45.7224 41.4252 45.7224H34.281C32.3893 45.7224 32.3921 48.5801 34.281 48.5801H41.4252Z" fill="#67552A"/>
<path d="M18.5633 34.2919H24.2786C26.1703 34.2919 26.1675 31.4342 24.2786 31.4342H18.5633C16.6715 31.4342 16.6744 34.2919 18.5633 34.2919Z" fill="#67552A"/>
<path d="M18.5633 52.8666C16.6715 52.8666 16.6744 55.7242 18.5633 55.7242H27.1362C29.028 55.7242 29.0251 52.8666 27.1362 52.8666H18.5633Z" fill="#67552A"/>
<path d="M18.5633 41.436H19.9921C21.8839 41.436 21.881 38.5784 19.9921 38.5784H18.5633C16.6715 38.5784 16.6744 41.436 18.5633 41.436Z" fill="#67552A"/>
<path d="M34.2817 38.5784H25.7088C23.8199 38.5784 23.817 41.436 25.7088 41.436H34.2817C36.1735 41.436 36.1706 38.5784 34.2817 38.5784Z" fill="#67552A"/>
<path d="M39.9957 31.4342H29.9939C28.1022 31.4342 28.105 34.2919 29.9939 34.2919H39.9957C41.8875 34.2919 41.8846 31.4342 39.9957 31.4342Z" fill="#67552A"/>
<path d="M48.5694 31.4342H45.7117C43.8199 31.4342 43.8228 34.2919 45.7117 34.2919H48.5694C50.4611 34.2919 50.4583 31.4342 48.5694 31.4342Z" fill="#67552A"/>
<path d="M48.5692 45.7224H47.1404C45.2486 45.7224 45.2515 48.5801 47.1404 48.5801H48.5692C50.461 48.5801 50.4581 45.7224 48.5692 45.7224Z" fill="#67552A"/>
<path d="M18.5633 15.7171H27.1376C29.0294 15.7171 29.0266 12.8595 27.1376 12.8595H18.5633C16.6715 12.8595 16.6744 15.7171 18.5633 15.7171Z" fill="#67552A"/>
<path d="M48.5688 38.5784H39.9959C38.1041 38.5784 38.107 41.436 39.9959 41.436H48.5688C50.4606 41.436 50.4577 38.5784 48.5688 38.5784Z" fill="#67552A"/>
</svg>
