<svg width="26" height="30" viewBox="0 0 26 30" fill="none" xmlns="http://www.w3.org/2000/svg">
<path d="M2.34628 0.00124998C0.631301 0.00124998 5.92749e-05 0.633741 5.92749e-05 2.34997V23.0509C-0.000793245 23.2317 0.00755074 23.4123 0.0250589 23.5922C0.0638084 23.9672 0.0713084 24.3297 0.420054 24.7422C0.453803 24.7834 0.808798 25.0484 0.808798 25.0484C1.00005 25.1422 1.13129 25.2109 1.34629 25.2984L11.7649 29.6621C12.3061 29.9108 12.5324 30.0071 12.9249 29.9996H12.9274C13.3199 30.0071 13.5461 29.9108 14.0874 29.6621L24.506 25.2972C24.721 25.2097 24.8522 25.1422 25.0435 25.0472C25.0435 25.0472 25.3985 24.7834 25.4322 24.7434C25.7822 24.3309 25.7885 23.9672 25.8272 23.5934C25.8448 23.4131 25.8531 23.2321 25.8522 23.0509V2.34997C25.8522 0.633741 25.2197 0 23.5047 0L2.34628 0.00124998ZM19.0536 3.8887H19.9035C21.326 3.8887 22.0135 4.57994 22.0135 6.00867V8.35864H20.296V6.10867C20.296 5.64742 20.0835 5.43368 19.6423 5.43368H19.3485C18.8898 5.43368 18.6773 5.64617 18.6773 6.10742V13.3698C18.6773 13.8311 18.8898 14.0448 19.3485 14.0448H19.676C20.1173 14.0448 20.3298 13.8311 20.3298 13.3698V10.7749H22.046V13.4536C22.046 14.8835 21.3435 15.591 19.921 15.591H19.0536C17.6311 15.591 16.9286 14.8835 16.9286 13.4536V6.02617C16.9286 4.59619 17.6311 3.88995 19.0536 3.88995V3.8887ZM3.82126 3.9887H7.7137V5.58117H5.57123V8.83488H7.63121V10.4286H5.57123V13.8961H7.7462V15.4898H3.82126V3.9887ZM8.59119 3.9887H11.3387C12.7611 3.9887 13.4636 4.69369 13.4636 6.12367V9.17988C13.4636 10.6099 12.7611 11.3173 11.3387 11.3173H10.3399V15.4898H8.58994L8.59119 3.9887ZM14.2536 3.9887H16.0036V15.4898H14.2536V3.9887ZM10.3412 5.53243V9.77237H11.0599C11.5024 9.77237 11.7137 9.55862 11.7137 9.09738V6.20742C11.7137 5.74742 11.5012 5.53243 11.0599 5.53243H10.3412ZM5.66623 18.216C5.91852 18.217 6.16864 18.2627 6.40497 18.351C6.62837 18.4409 6.83533 18.5672 7.01746 18.7247L6.45247 19.4072C6.33677 19.3076 6.20706 19.2254 6.06748 19.1635C5.92363 19.1044 5.7692 19.0755 5.61373 19.0785C5.49298 19.0775 5.37348 19.1031 5.26374 19.1535C5.15782 19.2022 5.06264 19.2714 4.98374 19.3572C4.90271 19.446 4.83872 19.549 4.79499 19.661C4.74794 19.7799 4.72418 19.9068 4.725 20.0347V20.0447C4.72404 20.1771 4.74778 20.3085 4.79499 20.4322C4.83824 20.5469 4.9051 20.6513 4.99124 20.7385C5.07633 20.824 5.17742 20.892 5.28874 20.9385C5.40884 20.9878 5.53765 21.0125 5.66748 21.011C5.86317 21.0189 6.05679 20.9684 6.22372 20.866V20.4422H5.53873V19.736H7.13746V21.3047C6.93973 21.4649 6.7189 21.5943 6.48247 21.6885C6.21066 21.7949 5.92062 21.8472 5.62873 21.8422C5.37174 21.8451 5.11649 21.7998 4.87624 21.7085C4.65459 21.6235 4.45163 21.4961 4.27875 21.3335C4.10886 21.173 3.97359 20.9794 3.88126 20.7647C3.78364 20.5356 3.73469 20.2887 3.73751 20.0397V20.0297C3.73519 19.7851 3.78327 19.5425 3.87876 19.3172C3.97043 19.1022 4.10287 18.9069 4.26875 18.7422C4.43829 18.575 4.6398 18.4436 4.86124 18.356C5.09907 18.2618 5.35294 18.2147 5.60873 18.2173C5.62748 18.217 5.64623 18.217 5.66498 18.2173L5.66623 18.216ZM20.6198 18.226C20.8793 18.2253 21.1374 18.265 21.3848 18.3435C21.6152 18.4198 21.8299 18.5371 22.0185 18.6897L21.536 19.3722C21.3864 19.2642 21.2223 19.1779 21.0485 19.116C20.8929 19.0598 20.729 19.0302 20.5635 19.0285C20.4722 19.0222 20.3812 19.0449 20.3035 19.0935C20.277 19.1107 20.2552 19.1342 20.2399 19.1619C20.2247 19.1896 20.2165 19.2206 20.216 19.2522V19.2622C20.2152 19.2991 20.2247 19.3355 20.2435 19.3672C20.2676 19.4025 20.3003 19.4309 20.3385 19.4497C20.3972 19.4805 20.4588 19.5057 20.5223 19.5247C20.5998 19.5497 20.6973 19.5747 20.8173 19.601C20.9996 19.6399 21.1792 19.6909 21.3548 19.7535C21.5009 19.8043 21.639 19.8759 21.7648 19.966C21.8735 20.0441 21.9622 20.1469 22.0235 20.266C22.0859 20.3974 22.1163 20.5418 22.1123 20.6872V20.6972C22.1153 20.862 22.0807 21.0253 22.011 21.1747C21.9436 21.3135 21.8458 21.4353 21.7248 21.531C21.5936 21.6338 21.4438 21.7102 21.2835 21.756C21.0966 21.8091 20.9029 21.8348 20.7085 21.8322C20.4067 21.8338 20.1067 21.7848 19.821 21.6872C19.5474 21.5944 19.2953 21.4473 19.0798 21.2547L19.6173 20.6122C19.9635 20.891 20.3398 21.031 20.7423 21.031C20.8444 21.0369 20.9463 21.0153 21.0373 20.9685C21.0691 20.9512 21.0955 20.9255 21.1135 20.8942C21.1316 20.8628 21.1407 20.8271 21.1398 20.791V20.781C21.1403 20.7472 21.1316 20.714 21.1148 20.6847C21.0915 20.6502 21.0602 20.6219 21.0235 20.6022C20.9668 20.5703 20.9069 20.5443 20.8448 20.5247C20.749 20.4941 20.6518 20.4683 20.5535 20.4472C20.3795 20.4075 20.2073 20.3604 20.0373 20.306C19.8903 20.2599 19.7509 20.1925 19.6235 20.106C19.5088 20.0275 19.4139 19.9235 19.346 19.8022C19.2739 19.6635 19.2386 19.5085 19.2435 19.3522V19.3422C19.2419 19.1878 19.2734 19.0347 19.336 18.8935C19.3974 18.7569 19.4888 18.636 19.6035 18.5397C19.7289 18.4359 19.8733 18.3574 20.0285 18.3085C20.2096 18.2513 20.3987 18.2234 20.5885 18.226C20.5989 18.2259 20.6094 18.2259 20.6198 18.226ZM8.92244 18.2573H9.84993L11.3287 21.7697H10.2974L10.0437 21.146H8.70369L8.45619 21.7685H7.44371L8.92244 18.2573ZM11.6687 18.2823H12.6861L13.5149 19.6322L14.3436 18.2823H15.3611V21.7697H14.4036V19.7672L13.5149 21.131H13.4949L12.6111 19.7772V21.7685H11.6687V18.2823ZM16.0048 18.2823H18.7986V19.1047H16.9573V19.6322H18.6248V20.3947H16.9573V20.9472H18.8236V21.7697H16.0048V18.2823ZM9.37993 19.4035L8.98619 20.3947H9.76618L9.37993 19.4035ZM7.9487 25.8909H17.9661L12.8536 27.5759L7.9487 25.8909Z" fill="#67552A"/>
</svg>
