<svg width="28" height="35" viewBox="0 0 28 35" fill="none" xmlns="http://www.w3.org/2000/svg">
<path d="M15.6347 17.3867L12.5403 21.2617L10.9057 19.2148C10.8759 19.1775 10.8379 19.1473 10.7945 19.1265C10.7511 19.1057 10.7034 19.0949 10.6551 19.0949C10.6068 19.0949 10.5592 19.1057 10.5158 19.1265C10.4723 19.1473 10.4343 19.1775 10.4045 19.2148L6.43523 24.1836C6.3985 24.2297 6.37572 24.2849 6.36947 24.3431C6.36323 24.4013 6.37378 24.46 6.39992 24.5126C6.42606 24.5651 6.46673 24.6094 6.51728 24.6404C6.56784 24.6713 6.62623 24.6876 6.6858 24.6875H21.3182C21.5847 24.6875 21.7318 24.3867 21.5687 24.1836L16.1398 17.3867C16.1096 17.3493 16.0712 17.3191 16.0275 17.2983C15.9838 17.2775 15.9358 17.2667 15.8872 17.2667C15.8386 17.2667 15.7907 17.2775 15.7469 17.2983C15.7032 17.3191 15.6648 17.3493 15.6347 17.3867ZM7.95455 14.7656C7.95455 15.18 8.12216 15.5775 8.42051 15.8705C8.71887 16.1635 9.12352 16.3281 9.54545 16.3281C9.96739 16.3281 10.372 16.1635 10.6704 15.8705C10.9688 15.5775 11.1364 15.18 11.1364 14.7656C11.1364 14.3512 10.9688 13.9538 10.6704 13.6608C10.372 13.3677 9.96739 13.2031 9.54545 13.2031C9.12352 13.2031 8.71887 13.3677 8.42051 13.6608C8.12216 13.9538 7.95455 14.3512 7.95455 14.7656ZM27.6261 8.77344L19.067 0.367188C18.8284 0.132813 18.5062 0 18.1682 0H1.27273C0.56875 0 0 0.558594 0 1.25V33.75C0 34.4414 0.56875 35 1.27273 35H26.7273C27.4312 35 28 34.4414 28 33.75V9.66016C28 9.32812 27.8648 9.00781 27.6261 8.77344ZM25.0648 10.2344H17.5795V2.88281L25.0648 10.2344ZM25.1364 32.1875H2.86364V2.8125H14.875V11.25C14.875 11.6851 15.051 12.1024 15.3643 12.4101C15.6775 12.7178 16.1024 12.8906 16.5455 12.8906H25.1364V32.1875Z" fill="#67552A"/>
</svg>
