<svg width="25" height="16" viewBox="0 0 25 16" fill="none" xmlns="http://www.w3.org/2000/svg">
<path d="M10.4174 12.1488L17.7417 2.2266C17.8526 2.0755 18.0122 1.96736 18.1937 1.9205C18.3751 1.87364 18.5672 1.89094 18.7373 1.96947C18.9075 2.048 19.0453 2.18293 19.1273 2.35141C19.2094 2.51988 19.2307 2.71155 19.1876 2.89393L19.1525 3.00866L14.6216 14.4809C14.4984 14.7873 14.3138 15.0653 14.0793 15.2978C13.8447 15.5303 13.5651 15.7124 13.2576 15.8329C12.9502 15.9534 12.6213 16.0098 12.2912 15.9986C11.9612 15.9874 11.6369 15.9089 11.3383 15.7679C11.0396 15.6268 10.773 15.4263 10.5547 15.1784C10.3364 14.9306 10.1711 14.6408 10.0688 14.3268C9.96659 14.0128 9.92961 13.6811 9.96017 13.3523C9.99072 13.0235 10.0882 12.7044 10.2465 12.4145L10.3273 12.2787L10.4163 12.1499L17.7417 2.2266L10.4163 12.1499L10.4174 12.1488ZM20.4391 2.77568C21.3429 3.5088 22.1397 4.36472 22.8064 5.31857C23.4199 6.19547 24.0123 7.25735 24.3518 8.12605C24.3939 8.23344 24.4144 8.34807 24.4121 8.46337C24.4099 8.57868 24.3849 8.69242 24.3387 8.79809C24.2925 8.90376 24.2259 8.9993 24.1428 9.07924C24.0597 9.15919 23.9616 9.22198 23.8542 9.26403C23.7469 9.30608 23.6322 9.32656 23.5169 9.32432C23.4016 9.32207 23.2879 9.29713 23.1822 9.25093C23.0765 9.20472 22.981 9.13816 22.9011 9.05503C22.8211 8.97191 22.7583 8.87385 22.7163 8.76646C22.5861 8.44178 22.4384 8.12443 22.2737 7.8158L19.8737 9.20081C19.681 9.31077 19.4539 9.34372 19.2379 9.29306C19.0219 9.2424 18.8331 9.11186 18.7095 8.9277C18.5858 8.74353 18.5364 8.51938 18.5713 8.3003C18.6061 8.08122 18.7226 7.88345 18.8972 7.74672L18.9968 7.67999L21.3594 6.31489L21.0901 5.94727C20.7168 5.45994 20.3024 5.00558 19.8514 4.58919L20.2963 3.46058C20.3408 3.34818 20.3747 3.23345 20.3982 3.11871L20.4263 2.94661L20.438 2.77568H20.4391ZM17.36 0.948127C17.1829 1.05113 17.0226 1.18063 16.8847 1.33214L16.7512 1.49604L16.119 2.35421C15.2975 2.06895 14.4444 1.88419 13.5785 1.80395V4.93222C13.5784 5.15469 13.4939 5.36884 13.342 5.53141C13.1901 5.69397 12.9822 5.79281 12.7603 5.80798C12.5383 5.82314 12.3189 5.75349 12.1463 5.6131C11.9737 5.4727 11.8609 5.27203 11.8305 5.05164L11.8224 4.93222V1.78288C9.8898 1.92031 8.0312 2.58167 6.44623 3.6959C5.49089 4.36557 4.65731 5.24364 3.96539 6.27742L6.40291 7.68468C6.59543 7.79601 6.73854 7.97625 6.80333 8.189C6.86812 8.40175 6.84976 8.63116 6.75197 8.8309C6.65418 9.03064 6.48424 9.18584 6.27646 9.26514C6.06869 9.34445 5.83856 9.34196 5.63255 9.25818L5.52484 9.20549L3.09669 7.80409C2.94683 8.11551 2.80868 8.4363 2.6799 8.76529C2.59269 8.97823 2.42538 9.14843 2.21396 9.23927C2.00254 9.3301 1.76391 9.33432 1.54941 9.25101C1.33492 9.16769 1.1617 9.00351 1.06702 8.79378C0.972347 8.58405 0.963783 8.34554 1.04317 8.12956C1.98798 5.70024 3.47835 3.63034 5.4382 2.25704C7.15488 1.05364 9.14746 0.302886 11.2314 0.0742915C13.3154 -0.154303 15.4233 0.146656 17.36 0.949298V0.948127Z" fill="#8442E6"/>
</svg>
