<svg width="17" height="17" viewBox="0 0 17 17" fill="none" xmlns="http://www.w3.org/2000/svg">
<path d="M8.5 0C3.80579 0 0 3.80579 0 8.5C0 13.1942 3.80579 17 8.5 17C13.1942 17 17 13.1942 17 8.5C17 3.80579 13.1942 0 8.5 0ZM12.4231 9.80769H8.5C8.32659 9.80769 8.16028 9.73881 8.03766 9.61619C7.91504 9.49357 7.84615 9.32726 7.84615 9.15385V3.26923C7.84615 3.09582 7.91504 2.92951 8.03766 2.80689C8.16028 2.68427 8.32659 2.61538 8.5 2.61538C8.67341 2.61538 8.83972 2.68427 8.96234 2.80689C9.08496 2.92951 9.15385 3.09582 9.15385 3.26923V8.5H12.4231C12.5965 8.5 12.7628 8.56889 12.8854 8.69151C13.008 8.81413 13.0769 8.98044 13.0769 9.15385C13.0769 9.32726 13.008 9.49357 12.8854 9.61619C12.7628 9.73881 12.5965 9.80769 12.4231 9.80769Z" fill="#67552A"/>
</svg>
