<svg width="12" height="12" viewBox="0 0 12 12" fill="none" xmlns="http://www.w3.org/2000/svg">
<path fill-rule="evenodd" clip-rule="evenodd" d="M12 6C12 9.3135 9.3135 12 6 12C2.6865 12 0 9.3135 0 6C0 2.6865 2.6865 0 6 0C9.3135 0 12 2.6865 12 6ZM9.844 5.529C9.941 5.6675 9.996 5.831 10.002 6C10.0046 6.16533 9.96036 6.32803 9.87435 6.46925C9.78834 6.61048 9.6641 6.72446 9.516 6.798C9.523 6.886 9.523 6.974 9.516 7.062C9.516 8.406 7.95 9.498 6.018 9.498C4.086 9.498 2.52 8.406 2.52 7.062C2.51324 6.97413 2.51324 6.88587 2.52 6.798C2.40559 6.74444 2.30413 6.66674 2.22259 6.57024C2.14106 6.47375 2.08139 6.36074 2.04769 6.23899C2.01398 6.11724 2.00704 5.98964 2.02733 5.86495C2.04763 5.74026 2.09469 5.62144 2.16527 5.51667C2.23585 5.4119 2.32828 5.32365 2.43621 5.25799C2.54413 5.19233 2.665 5.15082 2.79049 5.13632C2.91598 5.12181 3.04313 5.13465 3.16319 5.17395C3.28325 5.21326 3.39338 5.27809 3.486 5.364C4.17736 4.89512 4.99073 4.63859 5.826 4.626L6.27 2.544C6.27499 2.5199 6.28471 2.49702 6.2986 2.47671C6.31249 2.45639 6.33027 2.43903 6.35092 2.42563C6.37157 2.41224 6.39468 2.40308 6.41889 2.39868C6.44311 2.39428 6.46796 2.39473 6.492 2.4L7.962 2.694C8.03379 2.57066 8.14719 2.47695 8.28184 2.42969C8.41649 2.38242 8.56359 2.3847 8.69671 2.43611C8.82984 2.48752 8.94028 2.5847 9.00821 2.7102C9.07615 2.8357 9.09713 2.98131 9.06738 3.12088C9.03763 3.26046 8.95911 3.38486 8.84591 3.47176C8.73272 3.55866 8.59225 3.60236 8.44973 3.59503C8.30721 3.5877 8.17197 3.52981 8.06829 3.43175C7.9646 3.33369 7.89926 3.20189 7.884 3.06L6.6 2.79L6.21 4.662C7.03512 4.6797 7.83745 4.93603 8.52 5.4C8.61112 5.31239 8.72012 5.24556 8.83952 5.20408C8.95892 5.16261 9.08589 5.14748 9.21169 5.15974C9.3375 5.17199 9.45916 5.21135 9.56831 5.27509C9.67745 5.33883 9.77151 5.42545 9.844 5.529V5.529ZM4.103 6.2665C4.0592 6.33203 4.02874 6.40554 4.01336 6.48285C3.99797 6.56015 3.99797 6.63972 4.01333 6.71703C4.04437 6.87315 4.13616 7.01055 4.2685 7.099C4.40084 7.18745 4.5629 7.2197 4.71903 7.18867C4.79633 7.1733 4.86985 7.14285 4.93539 7.09907C5.00093 7.05529 5.0572 6.99903 5.101 6.9335C5.18945 6.80116 5.2217 6.6391 5.19067 6.48297C5.15963 6.32685 5.06784 6.18945 4.9355 6.101C4.80316 6.01255 4.6411 5.9803 4.48497 6.01133C4.32885 6.04237 4.19145 6.13416 4.103 6.2665ZM6.006 8.712C6.5385 8.734 7.0625 8.595 7.488 8.274C7.51983 8.24297 7.53802 8.20057 7.53858 8.15612C7.53915 8.11168 7.52203 8.06883 7.491 8.037C7.47564 8.02124 7.45732 8.00866 7.43709 7.99998C7.41687 7.9913 7.39513 7.98669 7.37312 7.98642C7.32868 7.98585 7.28583 8.00297 7.254 8.034C6.88986 8.29522 6.44748 8.42433 6 8.4C5.55307 8.41997 5.11274 8.2866 4.752 8.022C4.72091 7.99649 4.68145 7.98345 4.64128 7.98542C4.60111 7.98739 4.56311 8.00424 4.53467 8.03267C4.50624 8.06111 4.48939 8.09911 4.48742 8.13928C4.48545 8.17945 4.49849 8.21891 4.524 8.25C4.94969 8.57079 5.47343 8.73407 6.006 8.712V8.712ZM7.0465 7.123C7.1455 7.189 7.2555 7.248 7.374 7.248C7.45538 7.24895 7.5361 7.23332 7.61124 7.20207C7.68638 7.17081 7.75437 7.12459 7.81107 7.0662C7.86777 7.00782 7.91199 6.93851 7.94103 6.86248C7.97007 6.78646 7.98333 6.70531 7.98 6.624C7.97996 6.52036 7.95308 6.4185 7.90197 6.32834C7.85086 6.23817 7.77726 6.16279 7.68836 6.10952C7.59945 6.05626 7.49827 6.02693 7.39466 6.0244C7.29105 6.02187 7.18855 6.04622 7.09715 6.09508C7.00575 6.14394 6.92856 6.21564 6.87311 6.3032C6.81765 6.39075 6.78583 6.49118 6.78073 6.5947C6.77563 6.69821 6.79743 6.80128 6.844 6.89387C6.89058 6.98645 6.96034 7.06539 7.0465 7.123V7.123Z" fill="#A7A7A7"/>
</svg>
