<svg width="174" height="33" viewBox="0 0 174 33" fill="none" xmlns="http://www.w3.org/2000/svg">
<path d="M8.61 0.499998V24.62H19.995V32H0.375V0.499998H8.61ZM43.8144 0.499998V7.655H32.3844V12.155H42.9144V19.355H32.3844V24.485H44.2194V32H24.1494V0.499998H43.8144ZM47.8848 16.295C47.8848 12.845 48.6948 9.86 50.3148 7.34C51.9348 4.82 53.9448 2.99 56.3448 1.85C58.7448 0.679998 61.3248 0.0949977 64.0848 0.0949977C66.2748 0.0949977 68.3298 0.454998 70.2498 1.175C72.1698 1.895 73.8948 3.095 75.4248 4.775C76.9548 6.455 77.9898 8.51 78.5298 10.94H70.5198C69.8298 9.71 68.9748 8.825 67.9548 8.285C66.9348 7.745 65.6448 7.475 64.0848 7.475C61.6248 7.475 59.6898 8.315 58.2798 9.995C56.8998 11.675 56.2098 13.76 56.2098 16.25C56.2098 18.89 56.9148 20.99 58.3248 22.55C59.7648 24.11 61.6848 24.89 64.0848 24.89C65.7948 24.89 67.1748 24.62 68.2248 24.08C69.2748 23.51 70.1598 22.505 70.8798 21.065H64.1748V14.135H79.0248C79.2948 17.765 79.0098 20.81 78.1698 23.27C77.0898 26.39 75.2598 28.7 72.6798 30.2C70.1298 31.67 67.2648 32.405 64.0848 32.405C62.0448 32.405 60.0648 32.06 58.1448 31.37C56.2548 30.68 54.5298 29.69 52.9698 28.4C51.4398 27.11 50.2098 25.415 49.2798 23.315C48.3498 21.215 47.8848 18.875 47.8848 16.295ZM101.746 28.085H89.9556L88.1556 32H79.5606V30.875L94.0056 0.184999H97.7856L112.096 30.875V32H103.591L101.746 28.085ZM95.8506 13.595L92.6106 21.2H99.1356L95.8506 13.595ZM112.617 16.295C112.617 13.685 113.067 11.33 113.967 9.23C114.897 7.13 116.127 5.435 117.657 4.145C119.187 2.855 120.897 1.88 122.787 1.22C124.677 0.529999 126.657 0.184999 128.727 0.184999C131.007 0.184999 133.152 0.574999 135.162 1.355C137.202 2.135 139.002 3.455 140.562 5.315C142.152 7.175 143.142 9.44 143.532 12.11H135.612C134.562 9.11 132.267 7.61 128.727 7.61C126.357 7.61 124.452 8.405 123.012 9.995C121.572 11.555 120.852 13.64 120.852 16.25C120.852 18.59 121.572 20.6 123.012 22.28C124.482 23.96 126.387 24.8 128.727 24.8C130.497 24.8 131.997 24.38 133.227 23.54C134.457 22.7 135.282 21.455 135.702 19.805H143.622C143.232 22.655 142.257 25.055 140.697 27.005C139.137 28.925 137.337 30.29 135.297 31.1C133.287 31.91 131.097 32.315 128.727 32.315C126.687 32.315 124.707 31.97 122.787 31.28C120.897 30.59 119.187 29.6 117.657 28.31C116.127 27.02 114.897 25.34 113.967 23.27C113.067 21.17 112.617 18.845 112.617 16.295ZM158.526 10.94H158.886L164.601 0.499998H173.331V1.715L162.801 19.535V32H154.566V19.535L143.991 1.715V0.499998H152.811L158.526 10.94Z" fill="white"/>
</svg>
