<svg width="16" height="12" viewBox="0 0 16 12" fill="none" xmlns="http://www.w3.org/2000/svg">
<path d="M5.87143 5.982C5.87143 6.52706 6.08796 7.0498 6.47338 7.43522C6.85879 7.82064 7.38153 8.03716 7.9266 8.03716C8.47166 8.03716 8.9944 7.82064 9.37982 7.43522C9.76524 7.0498 9.98176 6.52706 9.98176 5.982C9.98176 5.43693 9.76524 4.9142 9.37982 4.52878C8.9944 4.14336 8.47166 3.92683 7.9266 3.92683C7.38153 3.92683 6.85879 4.14336 6.47338 4.52878C6.08796 4.9142 5.87143 5.43693 5.87143 5.982ZM15.894 5.50858C14.1545 1.84414 11.525 0 8 0C4.47319 0 1.84551 1.84414 0.105961 5.51041C0.0361868 5.65816 0 5.81952 0 5.98291C0 6.14631 0.0361868 6.30767 0.105961 6.45542C1.84551 10.1199 4.47502 11.964 8 11.964C11.5268 11.964 14.1545 10.1199 15.894 6.45359C16.0353 6.15632 16.0353 5.81135 15.894 5.50858ZM7.9266 9.21154C6.14301 9.21154 4.69705 7.76559 4.69705 5.982C4.69705 4.19841 6.14301 2.75245 7.9266 2.75245C9.71019 2.75245 11.1561 4.19841 11.1561 5.982C11.1561 7.76559 9.71019 9.21154 7.9266 9.21154Z" fill="#CCCCCC"/>
</svg>
