<svg width="39" height="30" viewBox="0 0 39 30" fill="none" xmlns="http://www.w3.org/2000/svg">
<path d="M14.3292 0.00119618V27.9891L20.5726 30V6.52444C20.5726 5.42029 21.0594 4.68578 21.8442 4.94059C22.8538 5.23367 23.0536 6.24332 23.0536 7.34628V16.7166C26.9487 18.6175 30.0123 16.7107 30.0123 11.6887C30.0123 6.52444 28.2179 4.23 22.9352 2.39253C20.8477 1.67477 16.9838 0.497647 14.3364 0L14.3292 0.00119618ZM21.7569 25.9076L31.8007 22.2745C32.9396 21.8642 33.1154 21.2792 32.1931 20.973C31.2588 20.6679 29.5816 20.7481 28.4284 21.1656L21.7246 23.5581V19.7504L22.1038 19.62C22.1038 19.62 24.0226 18.9489 26.7513 18.6355C29.456 18.3495 32.79 18.6845 35.4254 19.6882C38.373 20.6488 38.684 22.0376 37.9364 22.9982C37.1947 23.9505 35.3512 24.6491 35.3512 24.6491L21.7246 29.6016V25.9375L21.7569 25.9076ZM2.88454 25.5284C-0.150389 24.6563 -0.648036 22.8679 0.727672 21.8199C2.00529 20.8916 4.16694 20.1451 4.16694 20.1451L13.1258 16.9356V20.6237L6.70901 22.9731C5.58093 23.4038 5.39431 23.9828 6.32979 24.2878C7.26408 24.6 8.93885 24.5319 10.0621 24.1012L13.1521 22.9731V26.2808C12.9655 26.3251 12.7466 26.349 12.5289 26.3992C9.43889 26.9244 6.16112 26.7115 2.90249 25.6336L2.88454 25.5284Z" fill="white"/>
</svg>
