<svg width="30" height="30" viewBox="0 0 30 30" fill="none" xmlns="http://www.w3.org/2000/svg">
<path d="M12.8287 25.6575C15.6751 25.6569 18.4394 24.704 20.6815 22.9506L27.7309 30L29.9984 27.7325L22.949 20.6831C24.7033 18.4408 25.6568 15.6758 25.6575 12.8287C25.6575 5.75529 19.9022 0 12.8287 0C5.75529 0 0 5.75529 0 12.8287C0 19.9022 5.75529 25.6575 12.8287 25.6575ZM12.8287 3.20718C18.135 3.20718 22.4503 7.52245 22.4503 12.8287C22.4503 18.135 18.135 22.4503 12.8287 22.4503C7.52245 22.4503 3.20718 18.135 3.20718 12.8287C3.20718 7.52245 7.52245 3.20718 12.8287 3.20718Z" fill="#67552A"/>
</svg>
