<svg width="30" height="30" viewBox="0 0 30 30" fill="none" xmlns="http://www.w3.org/2000/svg">
<path d="M14.9461 0C7.0704 0 0.610293 6.07387 0 13.7939L8.03694 17.1192C8.74203 16.6383 9.57589 16.3814 10.4294 16.3823C10.5072 16.3823 10.5859 16.387 10.6637 16.387L14.2383 11.2112V11.1381C14.2383 8.01819 16.7723 5.4842 19.8922 5.4842C23.0121 5.4842 25.5508 8.02287 25.5508 11.1428C25.5488 12.6425 24.9518 14.0801 23.8909 15.1401C22.83 16.2002 21.3919 16.7959 19.8922 16.7967H19.7656L14.6677 20.4341C14.6677 20.5025 14.6724 20.5662 14.6724 20.6347C14.6724 22.9783 12.7777 24.8777 10.434 24.8777C8.39318 24.8777 6.66448 23.4124 6.26887 21.47L0.517484 19.0869C2.29962 25.3858 8.07631 30 14.9461 30C23.2268 30 29.9409 23.2868 29.9409 15.0005C29.9409 6.71417 23.2277 0.000937471 14.9461 0.000937471V0ZM9.39439 22.7627L7.5532 22.0006C7.89228 22.705 8.47754 23.2609 9.19846 23.5633C9.97881 23.8864 10.8554 23.8869 11.6361 23.5648C12.4169 23.2427 13.0381 22.6242 13.3636 21.8449C13.5252 21.4592 13.6087 21.0453 13.6095 20.6272C13.6103 20.209 13.5284 19.7948 13.3683 19.4085C13.2105 19.0201 12.9767 18.6671 12.6806 18.3703C12.3846 18.0734 12.0323 17.8387 11.6443 17.6798C10.8969 17.3675 10.0582 17.3534 9.30065 17.6404L11.2 18.4269C12.3962 18.9294 12.9624 20.3019 12.4646 21.4981C11.9668 22.6943 10.5897 23.2605 9.39346 22.7627H9.39439ZM23.6618 11.1325C23.6608 10.1338 23.2639 9.17631 22.5582 8.46973C21.8525 7.76314 20.8955 7.36513 19.8969 7.3629C18.8971 7.3629 17.9383 7.76005 17.2314 8.46698C16.5245 9.17391 16.1273 10.1327 16.1273 11.1325C16.1273 12.1322 16.5245 13.091 17.2314 13.798C17.9383 14.5049 18.8971 14.902 19.8969 14.902C20.8957 14.9005 21.8532 14.5028 22.5591 13.796C23.2649 13.0893 23.6615 12.1313 23.6618 11.1325V11.1325ZM17.0751 11.1278C17.0751 9.56033 18.3397 8.29568 19.9025 8.29568C21.4653 8.29568 22.7393 9.56033 22.7393 11.1278C22.7393 12.6905 21.4653 13.9599 19.9025 13.9599C18.3397 13.9599 17.0751 12.6905 17.0751 11.1278V11.1278Z" fill="#67552A"/>
</svg>
