<svg width="10" height="12" viewBox="0 0 10 12" fill="none" xmlns="http://www.w3.org/2000/svg">
<path d="M9.40336 2.81481C8.83148 2.68325 8.31414 2.36555 7.92557 1.90729C7.537 1.44903 7.29719 0.873775 7.24054 0.264076V0H5.2613V8.20437C5.2617 8.56841 5.1526 8.92336 4.94946 9.21893C4.74632 9.51451 4.45943 9.73572 4.12944 9.85124C3.79944 9.96675 3.44307 9.97072 3.1108 9.86258C2.77852 9.75443 2.4872 9.53966 2.27809 9.24867C2.09075 8.99111 1.97604 8.68384 1.94692 8.36162C1.9178 8.0394 1.97544 7.71508 2.11332 7.42535C2.2512 7.13561 2.46381 6.89201 2.72713 6.7221C2.99044 6.55219 3.29395 6.46274 3.60332 6.46387C3.77442 6.46285 3.94467 6.48916 4.10817 6.54189V4.44128C3.9179 4.41663 3.72616 4.4066 3.53448 4.41128C2.82844 4.43101 2.14323 4.66571 1.56275 5.08663C0.982263 5.50755 0.531708 6.09643 0.266252 6.78115C0.000796704 7.46586 -0.0680373 8.2167 0.0681795 8.94172C0.204396 9.66674 0.539751 10.3345 1.03318 10.8631C1.53888 11.401 2.18601 11.7695 2.89234 11.9217C3.59867 12.074 4.33232 12.0031 5.00007 11.7181C5.66782 11.4332 6.23952 10.947 6.64254 10.3213C7.04555 9.69569 7.26169 8.95882 7.26349 8.20437V4.00316C8.06176 4.5997 9.01899 4.91881 10 4.91542V2.87483C9.8073 2.87566 9.61504 2.85555 9.42631 2.81481H9.40336Z" fill="#67552A"/>
</svg>
