<svg width="16" height="16" viewBox="0 0 16 16" fill="none" xmlns="http://www.w3.org/2000/svg">
<path d="M0.807596 0L0 0.807596L1.42267 3.2679L2.34529 3.13259L7.97693 8.76485L7.49656 9.22616C7.25053 9.47219 7.25053 9.84492 7.49656 10.091L7.74628 10.3413C7.99231 10.5873 8.36874 10.5873 8.55326 10.3413L9.28397 11.0714C9.22247 11.4404 9.28397 11.879 9.59151 12.1865L12.9166 15.4926C13.5932 16.1691 14.7003 16.1691 15.3769 15.4926C16.1765 14.7545 16.1691 13.651 15.4926 12.9744L12.1865 9.64871C11.879 9.34118 11.4404 9.21816 11.0714 9.34118L10.2638 8.61108C10.4483 8.36505 10.4483 7.98862 10.2638 7.80348L10.0331 7.57344C9.97722 7.51514 9.91009 7.46874 9.83578 7.43704C9.76148 7.40535 9.68152 7.38901 9.60074 7.38901C9.51995 7.38901 9.44 7.40535 9.36569 7.43704C9.29138 7.46874 9.22425 7.51514 9.16834 7.57344L8.76485 7.97693L3.1332 2.34529L3.26729 1.42267L0.806981 0L0.807596 0ZM12.8016 0.0190674C11.5881 -0.0818053 9.97901 0.722716 9.22616 1.42206C8.29985 2.34836 8.45116 3.55945 9.18741 4.72871L7.88098 6.03575L8.8036 7.07339C9.29566 6.64283 10.0215 6.64283 10.5135 7.07339L10.7638 7.32311L10.8217 7.38092L11.3599 6.84273C12.4719 7.49656 13.6295 7.59067 14.5121 6.70803C15.3732 5.90843 16.3069 3.93649 15.8764 2.76785L14.1468 4.55526C13.9007 4.80129 13.528 4.80129 13.282 4.55526L11.4939 2.76785C11.4356 2.71193 11.3892 2.6448 11.3575 2.57049C11.3258 2.49618 11.3095 2.41623 11.3095 2.33545C11.3095 2.25466 11.3258 2.17471 11.3575 2.1004C11.3892 2.02609 11.4356 1.95896 11.4939 1.90305L13.2826 0.115634C13.1288 0.0615077 12.9751 0.0338292 12.8016 0.0190674ZM6.03575 7.68846L3.80548 9.91812C3.56582 9.86487 3.32088 9.83908 3.07539 9.84123C1.35317 9.84123 0 11.1944 0 12.9166C0 14.6388 1.35317 15.992 3.07539 15.992C4.7976 15.992 6.15077 14.6388 6.15077 12.9166C6.15077 12.6011 6.10095 12.2979 6.01607 12.0131L7.32311 10.706L7.1312 10.4563C6.63914 9.96425 6.64283 9.21878 7.07339 8.7261L6.03514 7.68846H6.03575ZM10.8026 10.4951C10.8795 10.4951 10.9521 10.5098 11.0136 10.5719L14.6468 14.2046C14.7698 14.3276 14.7698 14.5232 14.6468 14.6462C14.5238 14.7692 14.327 14.7692 14.204 14.6462L10.5719 11.0136C10.4489 10.8906 10.4489 10.695 10.5719 10.5719C10.6335 10.5104 10.7257 10.4951 10.8026 10.4951ZM3.49856 11.3205L4.6709 12.4934L4.24772 14.0883L2.65283 14.5115L1.47988 13.3386L1.90305 11.7437L3.49856 11.3205V11.3205Z" fill="#67552A"/>
</svg>
