<svg width="16" height="10" viewBox="0 0 16 10" fill="none" xmlns="http://www.w3.org/2000/svg">
<path d="M13.5321 9.14894H12.6811V1.48936C12.6811 1.23405 12.5108 1.06383 12.2555 1.06383H5.02148V0.212769H12.2555C12.9789 0.212769 13.5321 0.76596 13.5321 1.48936V9.14894Z" fill="#CCCCCC"/>
<path d="M13.1065 9.78721L10.2129 6.46806L10.8937 5.87231L13.1065 8.51061L15.3193 5.87231L16.0001 6.46806L13.1065 9.78721Z" fill="#CCCCCC"/>
<path d="M10.9789 9.57448H3.74486C3.02145 9.57448 2.46826 9.02129 2.46826 8.29788V0.638306H3.31933V8.29788C3.31933 8.5532 3.48954 8.72341 3.74486 8.72341H10.9789V9.57448Z" fill="#CCCCCC"/>
<path d="M5.10638 3.91489L2.89362 1.2766L0.680851 3.91489L0 3.31915L2.89362 0L5.78723 3.31915L5.10638 3.91489Z" fill="#CCCCCC"/>
</svg>
