<svg width="16" height="17" viewBox="0 0 16 17" fill="none" xmlns="http://www.w3.org/2000/svg">
<path d="M12.7464 4.98831C12.7247 6.38004 12.2541 8.26439 10.048 8.99498C10.7388 7.37824 10.8442 5.83094 10.3548 4.38457C9.70071 2.44281 7.51812 0.926072 6.06588 0.100106C5.56988 -0.183241 4.93365 0.168627 4.94306 0.732544C4.96188 1.76222 4.64376 3.26693 3.09929 4.78644C1.04188 6.80876 0 8.89868 0 10.9969C0 13.6313 1.88235 17 5.64706 17C1.84376 13.2582 4.70588 10.071 4.70588 10.071C5.50212 15.5472 9.40047 17 11.2941 17C12.9045 17 16 15.8425 16 11.0293C16 8.12827 14.7464 5.92631 13.7553 4.64107C13.4287 4.21697 12.7539 4.45772 12.7464 4.98831Z" fill="#67552A"/>
</svg>
