<svg width="12" height="9" viewBox="0 0 12 9" fill="none" xmlns="http://www.w3.org/2000/svg">
<path d="M12 1.06756C11.5587 1.24797 11.0846 1.36986 10.5863 1.42496C11.1005 1.14109 11.4852 0.694306 11.6686 0.16798C11.1855 0.432731 10.6567 0.619086 10.1053 0.718945C9.73454 0.353682 9.2434 0.11158 8.70818 0.0302262C8.17295 -0.0511275 7.62359 0.0328189 7.14537 0.269032C6.66716 0.505246 6.28685 0.88051 6.0635 1.33656C5.84015 1.79262 5.78624 2.30394 5.91016 2.79116C4.93122 2.74581 3.97355 2.51107 3.09932 2.10216C2.22508 1.69326 1.4538 1.11933 0.83555 0.417621C0.624152 0.754051 0.502598 1.14411 0.502598 1.55953C0.502363 1.9335 0.602184 2.30175 0.793206 2.63159C0.984229 2.96143 1.26055 3.24268 1.59764 3.45037C1.2067 3.43889 0.824385 3.34143 0.482516 3.16611V3.19536C0.482476 3.71987 0.679133 4.22824 1.03912 4.63421C1.3991 5.04017 1.90024 5.31874 2.4575 5.42263C2.09484 5.51318 1.71462 5.52651 1.34555 5.46163C1.50277 5.91294 1.80903 6.30759 2.22146 6.59034C2.63388 6.87309 3.13182 7.02977 3.64556 7.03846C2.77345 7.67008 1.69641 8.01269 0.587686 8.01118C0.391287 8.01123 0.195055 8.00065 0 7.97949C1.12542 8.64707 2.43548 9.00137 3.77345 9C8.30265 9 10.7786 5.53916 10.7786 2.53762C10.7786 2.4401 10.776 2.34161 10.7712 2.24409C11.2529 1.92277 11.6686 1.52486 11.9989 1.06903L12 1.06756Z" fill="#67552A"/>
</svg>
