<svg width="30" height="30" viewBox="0 0 30 30" fill="none" xmlns="http://www.w3.org/2000/svg">
<path d="M5.12814 26.2884C7.85708 28.6869 11.3678 30.0067 15.0009 30C18.7847 30 22.2375 28.604 24.8784 26.2884C27.2222 23.9006 19.4831 15.405 15.0009 12.0206C10.5234 15.404 2.77971 23.9006 5.12814 26.2884V26.2884ZM19.0781 8.28656C22.2028 11.9878 28.4334 21.1762 26.6756 24.4237C28.8327 21.759 30.0069 18.433 30.0009 15.0047C30.0009 10.83 28.2975 7.05093 25.5384 4.33593C25.5384 4.33593 25.5037 4.30593 25.4362 4.2825C25.323 4.2435 25.2035 4.22539 25.0837 4.22906C24.3478 4.22906 22.6041 4.77 19.0791 8.28656H19.0781ZM4.56564 4.2825C4.49814 4.30593 4.46345 4.33593 4.45783 4.33593C3.04307 5.72876 1.92017 7.38963 1.15475 9.22147C0.389341 11.0533 -0.00322002 13.0194 1.98923e-05 15.0047C1.98923e-05 18.5737 1.24502 21.8456 3.32533 24.4181C1.57783 21.1669 7.79814 11.9822 10.9275 8.28562C7.40251 4.76437 5.65408 4.22812 4.9172 4.22812C4.79684 4.22244 4.67665 4.24258 4.5647 4.28718L4.56564 4.2825ZM15.0009 4.43906C15.0009 4.43906 11.3194 2.28562 8.44314 2.1825C7.31533 2.14406 6.6272 2.54906 6.54283 2.60719C9.22407 0.806249 12.075 0 14.9803 0H15C17.9203 0 20.7563 0.806249 23.4572 2.60719C23.3738 2.54812 22.6894 2.14312 21.5569 2.1825C18.6806 2.28469 14.9991 4.43343 14.9991 4.43343L15.0009 4.43906Z" fill="#67552A"/>
</svg>
