<svg width="50" height="34" viewBox="0 0 50 34" fill="none" xmlns="http://www.w3.org/2000/svg">
<path d="M48.953 5.23254C48.67 4.22274 48.1185 3.30852 47.3574 2.58707C46.5748 1.84342 45.6156 1.31148 44.5703 1.04144C40.6583 0.0103294 24.9854 0.0103296 24.9854 0.0103296C18.4516 -0.064009 11.9193 0.262951 5.42556 0.989364C4.38026 1.27935 3.42283 1.82318 2.63843 2.57248C1.8677 3.31405 1.30944 4.22851 1.01782 5.23046C0.31727 9.00442 -0.0231027 12.8364 0.00128563 16.6748C-0.023711 20.5097 0.315827 24.3404 1.01782 28.119C1.30319 29.1168 1.85937 30.0271 2.63218 30.7624C3.40499 31.4978 4.36737 32.0289 5.42556 32.3102C9.38961 33.3392 24.9854 33.3392 24.9854 33.3392C31.5276 33.4136 38.0682 33.0867 44.5703 32.3601C45.6156 32.0901 46.5748 31.5582 47.3574 30.8145C48.1281 30.0792 48.676 29.1647 48.951 28.169C49.6698 24.3965 50.0193 20.563 49.9946 16.7227C50.0486 12.8661 49.6996 9.01446 48.953 5.23046V5.23254ZM20.0028 23.8071V9.54446L33.0427 16.6768L20.0028 23.8071Z" fill="white"/>
</svg>
