<svg width="11" height="7" viewBox="0 0 11 7" fill="none" xmlns="http://www.w3.org/2000/svg">
<path d="M10.7697 1.0983C10.7074 0.886346 10.5861 0.694452 10.4186 0.54302C10.2465 0.386931 10.0354 0.275277 9.80546 0.218596C8.94483 0.00216812 5.49679 0.00216817 5.49679 0.00216817C4.05935 -0.0134354 2.62225 0.0551929 1.19362 0.207666C0.963657 0.268534 0.753023 0.382682 0.580455 0.539959C0.410894 0.695613 0.288077 0.887556 0.223919 1.09786C0.0697994 1.89001 -0.0050826 2.69434 0.000282838 3.5C-0.00521642 4.30494 0.0694819 5.109 0.223919 5.90213C0.286703 6.11156 0.409061 6.30263 0.57908 6.45698C0.749099 6.61132 0.96082 6.72281 1.19362 6.78184C2.06571 6.99783 5.49679 6.99783 5.49679 6.99783C6.93607 7.01345 8.375 6.94482 9.80546 6.79233C10.0354 6.73565 10.2465 6.62399 10.4186 6.46791C10.5882 6.31356 10.7087 6.12162 10.7692 5.91262C10.9274 5.12078 11.0042 4.31612 10.9988 3.51005C11.0107 2.70057 10.9339 1.89212 10.7697 1.09786V1.0983ZM4.40061 4.99707V2.00336L7.26939 3.50043L4.40061 4.99707Z" fill="#A7A7A7"/>
</svg>
